<?xml version="1.0" encoding="utf-8"?>
<!-- Generator: Adobe Illustrator 15.0.0, SVG Export Plug-In . SVG Version: 6.00 Build 0)  -->
<!DOCTYPE svg PUBLIC "-//W3C//DTD SVG 1.1//EN" "http://www.w3.org/Graphics/SVG/1.1/DTD/svg11.dtd">
<svg version="1.1" id="Capa_1" xmlns="http://www.w3.org/2000/svg" xmlns:xlink="http://www.w3.org/1999/xlink" x="0px" y="0px"
	 width="481.667px" height="160.883px" viewBox="0 0 481.667 160.883" enable-background="new 0 0 481.667 160.883"
	 xml:space="preserve">
<g>
	<defs>
		<rect id="SVGID_1_" width="481.667" height="161.008"/>
	</defs>
	<clipPath id="SVGID_2_">
		<use xlink:href="#SVGID_1_"  overflow="visible"/>
	</clipPath>
	<path clip-path="url(#SVGID_2_)" fill="#A6A6A6" d="M443.311,0H38.379c-1.477,0-2.937,0-4.408,0.01
		c-1.231,0.008-2.453,0.031-3.698,0.051c-2.703,0.031-5.398,0.269-8.066,0.71c-2.663,0.453-5.242,1.303-7.651,2.525
		C12.151,4.528,9.952,6.128,8.041,8.04c-1.923,1.905-3.523,4.107-4.744,6.524c-1.222,2.412-2.071,4.996-2.515,7.662
		c-0.447,2.663-0.688,5.357-0.72,8.058c-0.038,1.234-0.042,2.472-0.063,3.707v93.04c0.021,1.248,0.025,2.458,0.063,3.709
		c0.032,2.702,0.272,5.396,0.72,8.058c0.444,2.667,1.292,5.254,2.515,7.666c1.221,2.407,2.821,4.603,4.744,6.498
		c1.903,1.921,4.103,3.52,6.514,4.744c2.409,1.224,4.989,2.081,7.651,2.538c2.668,0.441,5.364,0.677,8.066,0.714
		c1.246,0.026,2.467,0.042,3.698,0.042c1.471,0.008,2.931,0.008,4.408,0.008h404.932c1.447,0,2.915,0,4.363-0.008
		c1.229,0,2.484-0.016,3.711-0.042c2.698-0.035,5.39-0.271,8.049-0.714c2.672-0.462,5.263-1.316,7.683-2.538
		c2.411-1.224,4.607-2.824,6.511-4.744c1.915-1.903,3.518-4.097,4.754-6.498c1.216-2.414,2.053-4.998,2.492-7.666
		c0.452-2.662,0.695-5.356,0.744-8.058c0.017-1.25,0.017-2.461,0.017-3.709c0.033-1.464,0.033-2.918,0.033-4.404v-84.24
		c0-1.475,0-2.938-0.033-4.396c0-1.235,0-2.473-0.017-3.709c-0.049-2.698-0.292-5.393-0.744-8.056
		c-0.439-2.666-1.276-5.25-2.492-7.662c-2.484-4.843-6.422-8.784-11.265-11.27c-2.42-1.219-5.011-2.068-7.683-2.523
		c-2.659-0.443-5.351-0.681-8.049-0.712c-1.227-0.018-2.482-0.041-3.711-0.049C446.226,0,444.758,0,443.311,0"/>
	<path clip-path="url(#SVGID_2_)" fill="#010202" d="M33.992,157.484c-1.227,0-2.424-0.015-3.642-0.043
		c-2.519-0.031-5.034-0.252-7.522-0.657c-2.319-0.396-4.567-1.143-6.667-2.204c-2.082-1.053-3.981-2.434-5.623-4.091
		c-1.668-1.636-3.055-3.538-4.108-5.622c-1.066-2.099-1.804-4.348-2.187-6.671c-0.414-2.495-0.637-5.018-0.67-7.546
		c-0.025-0.85-0.058-3.674-0.058-3.674V33.991c0,0,0.035-2.782,0.058-3.6c0.032-2.527,0.254-5.046,0.667-7.535
		c0.385-2.33,1.122-4.585,2.188-6.691c1.049-2.082,2.43-3.983,4.087-5.626c1.653-1.659,3.558-3.048,5.645-4.118
		c2.094-1.057,4.339-1.795,6.655-2.188c2.496-0.409,5.019-0.628,7.548-0.661l3.632-0.048h413.659l3.677,0.05
		c2.505,0.031,5.005,0.249,7.478,0.655c2.339,0.398,4.607,1.141,6.727,2.204c4.181,2.153,7.576,5.559,9.724,9.742
		c1.049,2.092,1.772,4.329,2.155,6.637c0.414,2.511,0.646,5.051,0.699,7.596c0.008,1.141,0.008,2.365,0.008,3.583
		c0.032,1.508,0.032,2.946,0.032,4.396v84.24c0,1.464,0,2.889-0.032,4.329c0,1.31,0,2.509-0.012,3.741
		c-0.049,2.501-0.281,4.994-0.691,7.46c-0.374,2.341-1.106,4.607-2.172,6.722c-1.062,2.064-2.443,3.947-4.091,5.578
		c-1.643,1.667-3.542,3.056-5.628,4.118c-2.119,1.067-4.38,1.815-6.719,2.21c-2.486,0.407-5.002,0.628-7.522,0.657
		c-1.176,0.028-2.412,0.043-3.611,0.043l-4.363,0.01L33.992,157.484z"/>
	<path clip-path="url(#SVGID_2_)" fill="#FFFFFF" d="M99.698,81.715c0.088-6.828,3.669-13.136,9.486-16.714
		c-3.688-5.264-9.64-8.483-16.065-8.684c-6.759-0.71-13.312,4.046-16.757,4.046c-3.511,0-8.814-3.975-14.525-3.859
		c-7.512,0.244-14.347,4.412-18.004,10.982c-7.784,13.477-1.977,33.285,5.481,44.18c3.731,5.335,8.091,11.293,13.796,11.083
		c5.582-0.234,7.667-3.56,14.408-3.56c6.678,0,8.633,3.56,14.454,3.424c5.99-0.098,9.765-5.357,13.365-10.742
		c2.682-3.802,4.744-8.003,6.113-12.45C104.333,96.412,99.707,89.439,99.698,81.715"/>
	<path clip-path="url(#SVGID_2_)" fill="#FFFFFF" d="M88.704,49.151c3.266-3.92,4.877-8.961,4.487-14.048
		c-4.991,0.522-9.602,2.908-12.912,6.679c-3.269,3.719-4.927,8.589-4.604,13.528C80.732,55.363,85.534,53.094,88.704,49.151"/>
	<path clip-path="url(#SVGID_2_)" fill="#FFFFFF" d="M170.274,109.242h-19.053l-4.575,13.511h-8.07l18.045-49.982h8.386
		l18.046,49.982h-8.208L170.274,109.242z M153.194,103.008h15.102l-7.443-21.926h-0.208L153.194,103.008z"/>
	<path clip-path="url(#SVGID_2_)" fill="#FFFFFF" d="M222.027,104.533c0,11.325-6.061,18.603-15.207,18.603
		c-4.729,0.246-9.183-2.23-11.468-6.376h-0.173v18.05h-7.479V86.31h7.24v6.061h0.139c2.386-4.119,6.844-6.596,11.602-6.443
		C215.931,85.928,222.027,93.239,222.027,104.533 M214.337,104.533c0-7.377-3.812-12.229-9.63-12.229
		c-5.715,0-9.56,4.953-9.56,12.229c0,7.344,3.845,12.263,9.56,12.263C210.525,116.796,214.337,111.979,214.337,104.533"/>
	<path clip-path="url(#SVGID_2_)" fill="#FFFFFF" d="M262.135,104.533c0,11.325-6.06,18.603-15.205,18.603
		c-4.729,0.246-9.183-2.23-11.469-6.376h-0.173v18.05h-7.479V86.31h7.24v6.061h0.139c2.386-4.119,6.844-6.596,11.602-6.443
		C256.041,85.928,262.135,93.239,262.135,104.533 M254.448,104.533c0-7.377-3.813-12.229-9.63-12.229
		c-5.716,0-9.561,4.953-9.561,12.229c0,7.344,3.845,12.263,9.561,12.263C250.635,116.796,254.448,111.979,254.448,104.533"/>
	<path clip-path="url(#SVGID_2_)" fill="#FFFFFF" d="M288.646,108.827c0.556,4.957,5.37,8.21,11.949,8.21
		c6.307,0,10.841-3.253,10.841-7.725c0-3.879-2.736-6.202-9.213-7.796l-6.479-1.559c-9.179-2.217-13.438-6.509-13.438-13.475
		c0-8.624,7.514-14.548,18.187-14.548c10.563,0,17.802,5.925,18.046,14.548h-7.552c-0.449-4.988-4.574-7.999-10.6-7.999
		s-10.148,3.048-10.148,7.481c0,3.533,2.631,5.614,9.076,7.204l5.507,1.354c10.254,2.426,14.515,6.543,14.515,13.855
		c0,9.351-7.448,15.209-19.295,15.209c-11.086,0-18.568-5.719-19.053-14.759H288.646z"/>
	<path clip-path="url(#SVGID_2_)" fill="#FFFFFF" d="M335.481,77.687v8.623h6.929v5.925h-6.929v20.09
		c0,3.121,1.389,4.575,4.435,4.575c0.82-0.013,1.643-0.071,2.461-0.173v5.891c-1.372,0.254-2.764,0.371-4.156,0.346
		c-7.379,0-10.254-2.771-10.254-9.841V92.235h-5.299V86.31h5.299v-8.623H335.481z"/>
	<path clip-path="url(#SVGID_2_)" fill="#FFFFFF" d="M346.426,104.533c0-11.466,6.754-18.67,17.284-18.67
		c10.565,0,17.287,7.204,17.287,18.67c0,11.499-6.686,18.674-17.287,18.674C353.113,123.207,346.426,116.031,346.426,104.533
		 M373.375,104.533c0-7.863-3.601-12.507-9.665-12.507c-6.061,0-9.662,4.677-9.662,12.507c0,7.897,3.601,12.505,9.662,12.505
		C369.773,117.038,373.375,112.43,373.375,104.533"/>
	<path clip-path="url(#SVGID_2_)" fill="#FFFFFF" d="M387.164,86.31h7.135v6.202h0.175c0.992-3.992,4.652-6.738,8.763-6.582
		c0.862-0.004,1.723,0.089,2.563,0.278v6.997c-1.086-0.332-2.223-0.484-3.361-0.454c-4.158-0.167-7.667,3.068-7.836,7.229
		c-0.018,0.385-0.002,0.772,0.043,1.159v21.614h-7.481V86.31z"/>
	<path clip-path="url(#SVGID_2_)" fill="#FFFFFF" d="M440.288,112.05c-1.006,6.614-7.449,11.154-15.692,11.154
		c-10.598,0-17.182-7.102-17.182-18.499c0-11.429,6.618-18.843,16.868-18.843c10.085,0,16.426,6.925,16.426,17.975v2.564h-25.742
		v0.451c-0.46,5.222,3.397,9.829,8.619,10.293c0.396,0.035,0.789,0.044,1.186,0.03c3.631,0.339,7.053-1.745,8.413-5.126H440.288z
		 M415.002,101.172h18.219c0.271-4.832-3.428-8.967-8.261-9.238c-0.227-0.01-0.454-0.014-0.678-0.01
		c-5.092-0.031-9.247,4.075-9.28,9.17V101.172z"/>
	<path clip-path="url(#SVGID_2_)" fill="#FFFFFF" d="M152.256,35.144c5.854-0.418,10.938,3.985,11.358,9.839
		c0.05,0.7,0.031,1.401-0.056,2.096c0,7.672-4.148,12.083-11.303,12.083h-8.676V35.144H152.256z M147.312,55.766h4.529
		c4.162,0.25,7.738-2.924,7.987-7.086c0.03-0.519,0.008-1.039-0.067-1.552c0.568-4.142-2.329-7.96-6.471-8.529
		c-0.481-0.067-0.966-0.088-1.449-0.059h-4.529V55.766z"/>
	<path clip-path="url(#SVGID_2_)" fill="#FFFFFF" d="M167.772,50.091c-0.454-4.72,3.006-8.912,7.729-9.364
		c4.721-0.453,8.915,3.008,9.366,7.73c0.052,0.543,0.052,1.09,0,1.633c0.46,4.723-2.994,8.92-7.714,9.381
		c-4.722,0.459-8.922-2.995-9.38-7.714C167.719,51.203,167.719,50.646,167.772,50.091 M181.188,50.091
		c0-3.929-1.766-6.224-4.861-6.224c-3.111,0-4.86,2.295-4.86,6.224c0,3.96,1.749,6.24,4.86,6.24
		C179.422,56.331,181.188,54.038,181.188,50.091"/>
	<polygon clip-path="url(#SVGID_2_)" fill="#FFFFFF" points="207.59,59.162 203.88,59.162 200.134,45.815 199.852,45.815 
		196.12,59.162 192.445,59.162 187.45,41.039 191.078,41.039 194.323,54.867 194.592,54.867 198.319,41.039 201.75,41.039 
		205.474,54.867 205.76,54.867 208.99,41.039 212.567,41.039 	"/>
	<path clip-path="url(#SVGID_2_)" fill="#FFFFFF" d="M216.77,41.036h3.444v2.881h0.267c0.93-2.121,3.1-3.418,5.409-3.231
		c3.246-0.242,6.076,2.192,6.321,5.437c0.031,0.435,0.015,0.872-0.048,1.305v11.733h-3.577V48.326c0-2.912-1.266-4.361-3.913-4.361
		c-2.292-0.106-4.238,1.667-4.347,3.961c-0.008,0.211-0.002,0.423,0.021,0.632v10.604h-3.578V41.036z"/>
	<rect x="237.863" y="33.962" clip-path="url(#SVGID_2_)" fill="#FFFFFF" width="3.576" height="25.201"/>
	<path clip-path="url(#SVGID_2_)" fill="#FFFFFF" d="M246.411,50.091c-0.452-4.722,3.01-8.912,7.733-9.364
		c4.72-0.453,8.914,3.009,9.365,7.73c0.053,0.543,0.053,1.09,0,1.633c0.459,4.723-2.996,8.922-7.716,9.381
		c-4.723,0.459-8.922-2.997-9.382-7.716C246.357,51.201,246.357,50.646,246.411,50.091 M259.828,50.091
		c0-3.929-1.766-6.224-4.863-6.224c-3.109,0-4.857,2.295-4.857,6.224c0,3.96,1.749,6.24,4.857,6.24
		C258.062,56.331,259.828,54.038,259.828,50.091"/>
	<path clip-path="url(#SVGID_2_)" fill="#FFFFFF" d="M267.274,54.038c0-3.264,2.43-5.145,6.744-5.411l4.907-0.284v-1.564
		c0-1.915-1.264-2.995-3.709-2.995c-1.997,0-3.379,0.732-3.779,2.015h-3.462c0.366-3.113,3.293-5.109,7.405-5.109
		c4.543,0,7.108,2.26,7.108,6.089v12.385h-3.443v-2.548h-0.284c-1.17,1.858-3.25,2.948-5.444,2.845
		c-3.009,0.315-5.702-1.871-6.011-4.88C267.284,54.399,267.274,54.218,267.274,54.038 M278.925,52.488v-1.515l-4.427,0.283
		c-2.494,0.167-3.626,1.017-3.626,2.615c0,1.631,1.415,2.581,3.36,2.581c2.349,0.235,4.443-1.475,4.681-3.821
		C278.918,52.582,278.923,52.535,278.925,52.488"/>
	<path clip-path="url(#SVGID_2_)" fill="#FFFFFF" d="M287.189,50.091c0-5.726,2.945-9.354,7.523-9.354
		c2.311-0.107,4.477,1.132,5.557,3.178h0.268v-9.953h3.575v25.199h-3.427v-2.863h-0.283c-1.16,2.029-3.353,3.251-5.69,3.162
		C290.1,59.46,287.189,55.833,287.189,50.091 M290.883,50.091c0,3.847,1.812,6.159,4.843,6.159c3.013,0,4.878-2.346,4.878-6.141
		c0-3.78-1.882-6.159-4.878-6.159C292.716,43.95,290.883,46.28,290.883,50.091"/>
	<path clip-path="url(#SVGID_2_)" fill="#FFFFFF" d="M318.915,50.091c-0.453-4.72,3.008-8.912,7.729-9.364
		c4.721-0.453,8.914,3.008,9.365,7.73c0.052,0.543,0.052,1.09,0,1.633c0.458,4.723-2.994,8.92-7.714,9.381
		c-4.723,0.459-8.922-2.995-9.38-7.714C318.859,51.203,318.859,50.646,318.915,50.091 M332.33,50.091
		c0-3.929-1.766-6.224-4.864-6.224c-3.108,0-4.857,2.295-4.857,6.224c0,3.96,1.749,6.24,4.857,6.24
		C330.564,56.331,332.33,54.038,332.33,50.091"/>
	<path clip-path="url(#SVGID_2_)" fill="#FFFFFF" d="M340.809,41.036h3.443v2.881h0.268c0.93-2.121,3.1-3.418,5.409-3.231
		c3.244-0.242,6.075,2.192,6.319,5.437c0.033,0.435,0.02,0.872-0.044,1.305v11.733h-3.578V48.326c0-2.912-1.269-4.361-3.913-4.361
		c-2.293-0.106-4.239,1.667-4.346,3.961c-0.01,0.211-0.004,0.423,0.02,0.632v10.604h-3.578V41.036z"/>
	<path clip-path="url(#SVGID_2_)" fill="#FFFFFF" d="M376.414,36.524v4.595h3.928v3.014h-3.928v9.318
		c0,1.899,0.781,2.731,2.562,2.731c0.455,0,0.911-0.028,1.366-0.081v2.979c-0.644,0.114-1.293,0.175-1.948,0.183
		c-3.978,0-5.561-1.399-5.561-4.895V44.133h-2.881V41.12h2.881v-4.595H376.414z"/>
	<path clip-path="url(#SVGID_2_)" fill="#FFFFFF" d="M385.227,33.96h3.546v9.99h0.283c0.974-2.137,3.184-3.438,5.527-3.248
		c3.292-0.179,6.11,2.345,6.289,5.638c0.016,0.373,0.004,0.749-0.046,1.119v11.704h-3.581V48.342c0-2.894-1.349-4.362-3.875-4.362
		c-2.333-0.189-4.376,1.545-4.567,3.876c-0.02,0.238-0.018,0.479,0.004,0.722v10.585h-3.579V33.96z"/>
	<path clip-path="url(#SVGID_2_)" fill="#FFFFFF" d="M421.682,54.267c-1.002,3.42-4.313,5.628-7.854,5.246
		c-4.545,0.118-8.329-3.467-8.446-8.014c-0.013-0.449,0.012-0.898,0.073-1.342c-0.612-4.577,2.601-8.784,7.175-9.396
		c0.393-0.053,0.787-0.077,1.182-0.073c5.047,0,8.085,3.444,8.085,9.135v1.25h-12.798v0.2c-0.22,2.635,1.736,4.953,4.372,5.175
		c0.152,0.014,0.305,0.018,0.455,0.018c1.75,0.207,3.456-0.661,4.314-2.2H421.682z M409.098,48.427h9.153
		c0.18-2.41-1.628-4.505-4.035-4.685c-0.141-0.01-0.283-0.014-0.423-0.01c-2.561-0.033-4.663,2.015-4.695,4.577V48.427z"/>
</g>
</svg>
