<?xml version="1.0" encoding="utf-8"?>
<!-- Generator: Adobe Illustrator 15.0.0, SVG Export Plug-In . SVG Version: 6.00 Build 0)  -->
<!DOCTYPE svg PUBLIC "-//W3C//DTD SVG 1.1//EN" "http://www.w3.org/Graphics/SVG/1.1/DTD/svg11.dtd">
<svg version="1.1" id="Capa_1" xmlns="http://www.w3.org/2000/svg" xmlns:xlink="http://www.w3.org/1999/xlink" x="0px" y="0px"
	 width="21px" height="19px" viewBox="0 0 21 19" enable-background="new 0 0 21 19" xml:space="preserve">
<path id="Page_1" fill="#F35F13" d="M10.568,18.5c-0.1,0-0.195-0.039-0.267-0.109c-0.015-0.015-1.642-1.611-8.145-8.211
	l-0.045-0.046c-0.051-0.051-0.076-0.079-0.1-0.108C1.04,8.972,0.501,7.592,0.5,6.159C0.481,3.058,2.976,0.526,6.077,0.5
	C7.82,0.498,9.46,1.321,10.5,2.72c1.039-1.399,2.68-2.223,4.423-2.22c3.102,0.026,5.597,2.558,5.577,5.659
	c0.007,1.563-0.635,3.059-1.773,4.131c0,0-0.011,0.015-0.025,0.03c-1.2,1.215-2.219,2.255-3.301,3.357
	c-3.674,3.749-4.542,4.688-4.552,4.7c-0.07,0.075-0.168,0.12-0.271,0.124L10.568,18.5z"/>
</svg>
