<?xml version="1.0" encoding="utf-8"?>
<!-- Generator: Adobe Illustrator 15.0.0, SVG Export Plug-In . SVG Version: 6.00 Build 0)  -->
<!DOCTYPE svg PUBLIC "-//W3C//DTD SVG 1.1//EN" "http://www.w3.org/Graphics/SVG/1.1/DTD/svg11.dtd">
<svg version="1.1" id="Capa_1" xmlns="http://www.w3.org/2000/svg" xmlns:xlink="http://www.w3.org/1999/xlink" x="0px" y="0px"
	 width="542.98px" height="160.883px" viewBox="0 0 542.98 160.883" enable-background="new 0 0 542.98 160.883"
	 xml:space="preserve">
<g>
	<defs>
		<rect id="SVGID_1_" width="542.98" height="160.883"/>
	</defs>
	<clipPath id="SVGID_2_">
		<use xlink:href="#SVGID_1_"  overflow="visible"/>
	</clipPath>
	<g clip-path="url(#SVGID_2_)">
		<defs>
			<rect id="SVGID_3_" width="542.98" height="160.883"/>
		</defs>
		<clipPath id="SVGID_4_">
			<use xlink:href="#SVGID_3_"  overflow="visible"/>
		</clipPath>
		<path clip-path="url(#SVGID_4_)" fill="#010202" d="M522.869,160.883H20.11C9.05,160.883,0,151.833,0,140.772V20.11
			C0,9.05,9.05,0,20.11,0h502.759c11.062,0,20.111,9.05,20.111,20.11v120.662C542.98,151.833,533.931,160.883,522.869,160.883"/>
		<path clip-path="url(#SVGID_4_)" fill="#A6A6A6" d="M522.869,3.217c9.31,0,16.894,7.581,16.894,16.894v120.662
			c0,9.317-7.584,16.894-16.894,16.894H20.11c-9.315,0-16.894-7.577-16.894-16.894V20.11c0-9.313,7.579-16.894,16.894-16.894
			H522.869 M522.869,0H20.11C9.05,0,0,9.05,0,20.11v120.662c0,11.061,9.05,20.11,20.11,20.11h502.759
			c11.062,0,20.111-9.049,20.111-20.11V20.11C542.98,9.05,533.931,0,522.869,0"/>
		<path clip-path="url(#SVGID_4_)" fill="#FFFFFF" d="M190.721,41.199c0,3.37-0.998,6.053-2.997,8.052
			c-2.272,2.38-5.228,3.57-8.863,3.57c-3.484,0-6.447-1.206-8.88-3.618c-2.443-2.419-3.657-5.409-3.657-8.987
			c0-3.57,1.214-6.563,3.657-8.979c2.433-2.419,5.396-3.625,8.88-3.625c1.725,0,3.382,0.338,4.951,1.014
			c1.571,0.675,2.83,1.571,3.776,2.694l-2.125,2.125c-1.597-1.913-3.796-2.863-6.603-2.863c-2.543,0-4.739,0.892-6.593,2.679
			s-2.779,4.104-2.779,6.956c0,2.855,0.925,5.173,2.779,6.964c1.854,1.783,4.05,2.679,6.593,2.679c2.695,0,4.938-0.899,6.74-2.694
			c1.167-1.17,1.842-2.796,2.019-4.886h-8.759v-2.902h11.691C190.664,40.009,190.721,40.613,190.721,41.199"/>
		<path clip-path="url(#SVGID_4_)" fill="none" stroke="#FFFFFF" stroke-width="0.2" stroke-miterlimit="10" d="M190.721,41.199
			c0,3.37-0.998,6.053-2.997,8.052c-2.272,2.38-5.228,3.57-8.863,3.57c-3.484,0-6.447-1.206-8.88-3.618
			c-2.443-2.419-3.657-5.409-3.657-8.987c0-3.57,1.214-6.563,3.657-8.979c2.433-2.419,5.396-3.625,8.88-3.625
			c1.725,0,3.382,0.338,4.951,1.014c1.571,0.675,2.83,1.571,3.776,2.694l-2.125,2.125c-1.597-1.913-3.796-2.863-6.603-2.863
			c-2.543,0-4.739,0.892-6.593,2.679s-2.779,4.104-2.779,6.956c0,2.855,0.925,5.173,2.779,6.964c1.854,1.783,4.05,2.679,6.593,2.679
			c2.695,0,4.938-0.899,6.74-2.694c1.167-1.17,1.842-2.796,2.019-4.886h-8.759v-2.902h11.691
			C190.664,40.009,190.721,40.613,190.721,41.199z"/>
		<polygon clip-path="url(#SVGID_4_)" fill="#FFFFFF" points="209.26,31.12 198.272,31.12 198.272,38.768 208.178,38.768 
			208.178,41.674 198.272,41.674 198.272,49.317 209.26,49.317 209.26,52.287 195.171,52.287 195.171,28.154 209.26,28.154 		"/>
		<polygon clip-path="url(#SVGID_4_)" fill="none" stroke="#FFFFFF" stroke-width="0.2" stroke-miterlimit="10" points="
			209.26,31.12 198.272,31.12 198.272,38.768 208.178,38.768 208.178,41.674 198.272,41.674 198.272,49.317 209.26,49.317 
			209.26,52.287 195.171,52.287 195.171,28.154 209.26,28.154 		"/>
		<polygon clip-path="url(#SVGID_4_)" fill="#FFFFFF" points="222.335,52.287 219.234,52.287 219.234,31.116 212.494,31.116 
			212.494,28.154 229.076,28.154 229.076,31.116 222.335,31.116 		"/>
		<polygon clip-path="url(#SVGID_4_)" fill="none" stroke="#FFFFFF" stroke-width="0.2" stroke-miterlimit="10" points="
			222.335,52.287 219.234,52.287 219.234,31.116 212.494,31.116 212.494,28.154 229.076,28.154 229.076,31.116 222.335,31.116 		"/>
		<rect x="241.075" y="28.154" clip-path="url(#SVGID_4_)" fill="#FFFFFF" width="3.101" height="24.133"/>
		
			<rect x="241.075" y="28.154" clip-path="url(#SVGID_4_)" fill="none" stroke="#FFFFFF" stroke-width="0.2" stroke-miterlimit="10" width="3.101" height="24.133"/>
		<polygon clip-path="url(#SVGID_4_)" fill="#FFFFFF" points="257.929,52.287 254.828,52.287 254.828,31.116 248.088,31.116 
			248.088,28.154 264.669,28.154 264.669,31.116 257.929,31.116 		"/>
		<polygon clip-path="url(#SVGID_4_)" fill="none" stroke="#FFFFFF" stroke-width="0.2" stroke-miterlimit="10" points="
			257.929,52.287 254.828,52.287 254.828,31.116 248.088,31.116 248.088,28.154 264.669,28.154 264.669,31.116 257.929,31.116 		"/>
		<path clip-path="url(#SVGID_4_)" fill="#FFFFFF" d="M296.063,49.168c-2.373,2.439-5.322,3.653-8.85,3.653
			c-3.527,0-6.477-1.214-8.841-3.653c-2.376-2.439-3.559-5.42-3.559-8.952c0-3.527,1.182-6.508,3.559-8.943
			c2.364-2.443,5.314-3.661,8.841-3.661c3.508,0,6.446,1.226,8.834,3.677c2.38,2.451,3.57,5.424,3.57,8.928
			C299.617,43.748,298.431,46.729,296.063,49.168 M280.657,47.149c1.784,1.807,3.967,2.71,6.556,2.71
			c2.581,0,4.772-0.903,6.556-2.71c1.787-1.811,2.683-4.12,2.683-6.933c0-2.8-0.896-5.114-2.683-6.925
			c-1.783-1.811-3.975-2.71-6.556-2.71c-2.588,0-4.772,0.899-6.556,2.71c-1.783,1.811-2.679,4.125-2.679,6.925
			C277.979,43.029,278.874,45.339,280.657,47.149"/>
		<path clip-path="url(#SVGID_4_)" fill="none" stroke="#FFFFFF" stroke-width="0.2" stroke-miterlimit="10" d="M296.063,49.168
			c-2.373,2.439-5.322,3.653-8.85,3.653c-3.527,0-6.477-1.214-8.841-3.653c-2.376-2.439-3.559-5.42-3.559-8.952
			c0-3.527,1.182-6.508,3.559-8.943c2.364-2.443,5.314-3.661,8.841-3.661c3.508,0,6.446,1.226,8.834,3.677
			c2.38,2.451,3.57,5.424,3.57,8.928C299.617,43.748,298.431,46.729,296.063,49.168z M280.657,47.149
			c1.784,1.807,3.967,2.71,6.556,2.71c2.581,0,4.772-0.903,6.556-2.71c1.787-1.811,2.683-4.12,2.683-6.933
			c0-2.8-0.896-5.114-2.683-6.925c-1.783-1.811-3.975-2.71-6.556-2.71c-2.588,0-4.772,0.899-6.556,2.71
			c-1.783,1.811-2.679,4.125-2.679,6.925C277.979,43.029,278.874,45.339,280.657,47.149z"/>
		<polygon clip-path="url(#SVGID_4_)" fill="#FFFFFF" points="303.969,52.287 303.969,28.154 307.744,28.154 319.472,46.929 
			319.605,46.929 319.472,42.275 319.472,28.154 322.575,28.154 322.575,52.287 319.338,52.287 307.068,32.601 306.935,32.601 
			307.068,37.255 307.068,52.287 		"/>
		<polygon clip-path="url(#SVGID_4_)" fill="none" stroke="#FFFFFF" stroke-width="0.2" stroke-miterlimit="10" points="
			303.969,52.287 303.969,28.154 307.744,28.154 319.472,46.929 319.605,46.929 319.472,42.275 319.472,28.154 322.575,28.154 
			322.575,52.287 319.338,52.287 307.068,32.601 306.935,32.601 307.068,37.255 307.068,52.287 		"/>
		<path clip-path="url(#SVGID_4_)" fill="#FFFFFF" d="M274.051,87.488c-9.462,0-17.172,7.192-17.172,17.106
			c0,9.847,7.71,17.105,17.172,17.105c9.458,0,17.165-7.259,17.165-17.105C291.215,94.68,283.509,87.488,274.051,87.488
			 M274.051,114.959c-5.187,0-9.66-4.277-9.66-10.365c0-6.159,4.474-10.37,9.66-10.37c5.181,0,9.651,4.21,9.651,10.37
			C283.702,110.682,279.231,114.959,274.051,114.959 M236.585,87.488c-9.458,0-17.168,7.192-17.168,17.106
			c0,9.847,7.71,17.105,17.168,17.105c9.46,0,17.174-7.259,17.174-17.105C253.76,94.68,246.046,87.488,236.585,87.488
			 M236.585,114.959c-5.179,0-9.652-4.277-9.652-10.365c0-6.159,4.474-10.37,9.652-10.37c5.185,0,9.659,4.21,9.659,10.37
			C246.244,110.682,241.77,114.959,236.585,114.959 M192.03,92.731v7.263h17.367c-0.522,4.081-1.882,7.062-3.954,9.132
			c-2.529,2.529-6.485,5.314-13.414,5.314c-10.695,0-19.054-8.618-19.054-19.305c0-10.695,8.358-19.313,19.054-19.313
			c5.768,0,9.979,2.271,13.087,5.181l5.12-5.114c-4.344-4.148-10.112-7.325-18.208-7.325c-14.645,0-26.957,11.921-26.957,26.571
			c0,14.643,12.312,26.564,26.957,26.564c7.903,0,13.863-2.592,18.53-7.451c4.794-4.796,6.286-11.536,6.286-16.98
			c0-1.685-0.129-3.236-0.391-4.537H192.03z M374.261,98.372c-1.426-3.826-5.766-10.884-14.643-10.884
			c-8.81,0-16.139,6.929-16.139,17.106c0,9.587,7.262,17.105,16.979,17.105c7.836,0,12.377-4.792,14.258-7.581l-5.833-3.889
			c-1.948,2.852-4.604,4.729-8.425,4.729s-6.543-1.748-8.292-5.181l22.872-9.458L374.261,98.372z M350.934,104.075
			c-0.192-6.606,5.114-9.98,8.948-9.98c2.977,0,5.507,1.488,6.347,3.629L350.934,104.075z M332.335,120.662h7.518V70.378h-7.518
			V120.662z M320.022,91.31h-0.255c-1.685-2.007-4.929-3.822-9.006-3.822c-8.555,0-16.395,7.514-16.395,17.172
			c0,9.588,7.84,17.039,16.395,17.039c4.077,0,7.321-1.815,9.006-3.889h0.255v2.463c0,6.543-3.496,10.047-9.132,10.047
			c-4.599,0-7.451-3.307-8.622-6.096l-6.543,2.726c1.881,4.537,6.866,10.106,15.165,10.106c8.81,0,16.265-5.185,16.265-17.816
			V88.521h-7.133V91.31z M311.408,114.959c-5.181,0-9.525-4.34-9.525-10.299c0-6.025,4.344-10.436,9.525-10.436
			c5.118,0,9.132,4.411,9.132,10.436C320.541,110.619,316.526,114.959,311.408,114.959 M409.474,70.382h-17.985v50.28h7.502v-19.05
			h10.483c8.315,0,16.493-6.025,16.493-15.617C425.967,76.404,417.789,70.382,409.474,70.382 M409.662,94.617h-10.671V77.378h10.671
			c5.613,0,8.799,4.646,8.799,8.618C418.461,89.892,415.275,94.617,409.662,94.617 M456.05,87.394
			c-5.437,0-11.061,2.392-13.394,7.695l6.661,2.785c1.422-2.785,4.077-3.688,6.858-3.688c3.88,0,7.824,2.329,7.891,6.473v0.515
			c-1.359-0.778-4.27-1.94-7.828-1.94c-7.18,0-14.489,3.948-14.489,11.32c0,6.728,5.888,11.061,12.486,11.061
			c5.043,0,7.828-2.263,9.567-4.917h0.264v3.88h7.247v-19.277C471.313,92.374,464.644,87.394,456.05,87.394 M455.139,114.951
			c-2.459,0-5.884-1.226-5.884-4.273c0-3.881,4.27-5.369,7.953-5.369c3.3,0,4.855,0.719,6.858,1.685
			C463.481,111.652,459.475,114.951,455.139,114.951 M497.704,88.494l-8.605,21.799h-0.256l-8.928-21.799h-8.083l13.394,30.468
			l-7.64,16.949h7.828l20.637-47.417H497.704z M430.11,120.662h7.498v-50.28h-7.498V120.662z"/>
	</g>
	<g clip-path="url(#SVGID_2_)">
		<defs>
			<path id="SVGID_5_" d="M41.975,30.319c-1.17,1.237-1.862,3.162-1.862,5.652v88.949c0,2.494,0.691,4.415,1.862,5.652l0.292,0.287
				l49.834-49.824v-0.589v-0.593L42.267,30.028L41.975,30.319z"/>
		</defs>
		<clipPath id="SVGID_6_">
			<use xlink:href="#SVGID_5_"  overflow="visible"/>
		</clipPath>
		
			<linearGradient id="SVGID_7_" gradientUnits="userSpaceOnUse" x1="-22.8228" y1="820.2451" x2="-18.8003" y2="820.2451" gradientTransform="matrix(-16.7824 16.7824 -16.7824 -16.7824 13482.2988 14195.6309)">
			<stop  offset="0" style="stop-color:#4696D2"/>
			<stop  offset="0.0066" style="stop-color:#4598D3"/>
			<stop  offset="0.2601" style="stop-color:#3FB9EB"/>
			<stop  offset="0.5122" style="stop-color:#4AC1ED"/>
			<stop  offset="0.7604" style="stop-color:#5CC4E6"/>
			<stop  offset="1" style="stop-color:#60C4E5"/>
		</linearGradient>
		<polygon clip-path="url(#SVGID_6_)" fill="url(#SVGID_7_)" points="66.107,4.034 -10.303,80.445 66.107,156.853 142.517,80.445 		
			"/>
	</g>
	<g clip-path="url(#SVGID_2_)">
		<defs>
			<path id="SVGID_8_" d="M92.101,79.853v0.593v0.589l16.607,16.619l0.379-0.216l19.68-11.183c5.623-3.193,5.623-8.425,0-11.618
				l-19.68-11.179l-0.375-0.216L92.101,79.853z"/>
		</defs>
		<clipPath id="SVGID_9_">
			<use xlink:href="#SVGID_8_"  overflow="visible"/>
		</clipPath>
		
			<linearGradient id="SVGID_10_" gradientUnits="userSpaceOnUse" x1="-3.1836" y1="829.9512" x2="0.8389" y2="829.9512" gradientTransform="matrix(-24.1969 0 0 -24.1969 59.034 20162.7207)">
			<stop  offset="0" style="stop-color:#FFE005"/>
			<stop  offset="0.4087" style="stop-color:#FBBC0F"/>
			<stop  offset="0.7754" style="stop-color:#F7A418"/>
			<stop  offset="1" style="stop-color:#F59A1A"/>
		</linearGradient>
		<rect x="92.101" y="63.242" clip-path="url(#SVGID_9_)" fill="url(#SVGID_10_)" width="42.289" height="34.412"/>
	</g>
	<g clip-path="url(#SVGID_2_)">
		<defs>
			<path id="SVGID_11_" d="M41.975,130.572c1.85,1.96,4.912,2.203,8.358,0.247l58.754-33.386L92.101,80.445L41.975,130.572z"/>
		</defs>
		<clipPath id="SVGID_12_">
			<use xlink:href="#SVGID_11_"  overflow="visible"/>
		</clipPath>
		
			<linearGradient id="SVGID_13_" gradientUnits="userSpaceOnUse" x1="-15.8647" y1="814.7754" x2="-11.8415" y2="814.7754" gradientTransform="matrix(-22.7583 22.7583 -22.7583 -22.7583 18277.9512 18989.918)">
			<stop  offset="0" style="stop-color:#E8404A"/>
			<stop  offset="1" style="stop-color:#C31262"/>
		</linearGradient>
		<polygon clip-path="url(#SVGID_12_)" fill="url(#SVGID_13_)" points="75.53,46.89 15.81,106.612 75.53,166.335 135.252,106.612 		
			"/>
	</g>
	<g clip-path="url(#SVGID_2_)">
		<defs>
			<path id="SVGID_14_" d="M41.975,30.319l50.126,50.126l16.986-16.988L50.333,30.071c-1.618-0.919-3.15-1.355-4.509-1.355
				C44.278,28.716,42.957,29.278,41.975,30.319"/>
		</defs>
		<clipPath id="SVGID_15_">
			<use xlink:href="#SVGID_14_"  overflow="visible"/>
		</clipPath>
		
			<linearGradient id="SVGID_16_" gradientUnits="userSpaceOnUse" x1="-35.3779" y1="762.9277" x2="-31.3568" y2="762.9277" gradientTransform="matrix(10.1625 10.1625 -10.1625 10.1625 8138.3154 -7389.1709)">
			<stop  offset="0" style="stop-color:#32A071"/>
			<stop  offset="0.0685" style="stop-color:#30A771"/>
			<stop  offset="0.4762" style="stop-color:#4FB26F"/>
			<stop  offset="0.8009" style="stop-color:#5FB568"/>
			<stop  offset="1" style="stop-color:#64B664"/>
		</linearGradient>
		<polygon clip-path="url(#SVGID_15_)" fill="url(#SVGID_16_)" points="16.11,54.581 75.53,114 134.952,54.581 75.53,-4.839 		"/>
	</g>
	<g clip-path="url(#SVGID_2_)">
		<defs>
			<rect id="SVGID_17_" width="542.98" height="160.883"/>
		</defs>
		<clipPath id="SVGID_18_">
			<use xlink:href="#SVGID_17_"  overflow="visible"/>
		</clipPath>
		<g opacity="0.2" clip-path="url(#SVGID_18_)" enable-background="new    ">
			<g>
				<defs>
					<rect id="SVGID_19_" x="41.971" y="97.06" width="67.114" height="35.111"/>
				</defs>
				<clipPath id="SVGID_20_">
					<use xlink:href="#SVGID_19_"  overflow="visible"/>
				</clipPath>
				<path clip-path="url(#SVGID_20_)" fill="#010202" d="M108.712,97.06l-58.385,33.17c-3.266,1.854-6.183,1.732-8.056,0.043
					l-0.302,0.303l0.298,0.287h0.004c1.874,1.689,4.79,1.814,8.056-0.043l58.758-33.386L108.712,97.06z"/>
			</g>
		</g>
		<g opacity="0.12" clip-path="url(#SVGID_18_)" enable-background="new    ">
			<g>
				<defs>
					<rect id="SVGID_21_" x="40.111" y="124.334" width="2.16" height="6.238"/>
				</defs>
				<clipPath id="SVGID_22_">
					<use xlink:href="#SVGID_21_"  overflow="visible"/>
				</clipPath>
				<path clip-path="url(#SVGID_22_)" fill="#010202" d="M41.971,129.987c-1.17-1.241-1.858-3.162-1.858-5.652v0.585
					c0,2.49,0.688,4.415,1.858,5.652l0.302-0.299L41.971,129.987z"/>
			</g>
		</g>
		<g opacity="0.12" clip-path="url(#SVGID_18_)" enable-background="new    ">
			<g>
				<defs>
					<rect id="SVGID_23_" x="108.712" y="80.445" width="24.27" height="16.988"/>
				</defs>
				<clipPath id="SVGID_24_">
					<use xlink:href="#SVGID_23_"  overflow="visible"/>
				</clipPath>
				<path clip-path="url(#SVGID_24_)" fill="#010202" d="M128.765,85.666L108.712,97.06l0.373,0.373l19.68-11.183
					c2.811-1.594,4.215-3.7,4.215-5.801C132.742,82.351,131.314,84.216,128.765,85.666"/>
			</g>
		</g>
		<g opacity="0.25" clip-path="url(#SVGID_18_)" enable-background="new    ">
			<g>
				<defs>
					<rect id="SVGID_25_" x="40.111" y="28.72" width="92.871" height="51.725"/>
				</defs>
				<clipPath id="SVGID_26_">
					<use xlink:href="#SVGID_25_"  overflow="visible"/>
				</clipPath>
				<path clip-path="url(#SVGID_26_)" fill="#FFFFFF" d="M50.329,30.661l78.434,44.565c2.551,1.449,3.983,3.315,4.219,5.22
					c0-2.105-1.406-4.21-4.219-5.805L50.329,30.075c-5.619-3.193-10.22-0.546-10.22,5.896v0.585
					C40.109,30.123,44.71,27.467,50.329,30.661"/>
			</g>
		</g>
	</g>
</g>
</svg>
