<?xml version="1.0" encoding="utf-8"?>
<!-- Generator: Adobe Illustrator 15.0.0, SVG Export Plug-In . SVG Version: 6.00 Build 0)  -->
<!DOCTYPE svg PUBLIC "-//W3C//DTD SVG 1.1//EN" "http://www.w3.org/Graphics/SVG/1.1/DTD/svg11.dtd">
<svg version="1.1" id="shopping-cart" xmlns="http://www.w3.org/2000/svg" xmlns:xlink="http://www.w3.org/1999/xlink" x="0px"
	 y="0px" width="37.546px" height="33px" viewBox="0 0 37.546 33" enable-background="new 0 0 37.546 33" xml:space="preserve">
<path id="Shape" fill="#919191" d="M32.046,26.4H12.1c-1.823-0.002-3.299-1.48-3.298-3.303c0.001-1.314,0.782-2.503,1.988-3.025
	c-0.139-0.627-1.8-8.107-2.9-13.057L6.818,2.2H1.1C0.493,2.2,0,1.708,0,1.1S0.493,0,1.1,0h6.6c0.515,0,0.962,0.358,1.074,0.861
	L9.561,4.4h26.885c0.608,0.002,1.099,0.497,1.096,1.104c0,0.1-0.015,0.199-0.042,0.295L33.1,21.2c-0.134,0.474-0.566,0.8-1.058,0.8
	H12.1c-0.607,0-1.1,0.492-1.1,1.1s0.493,1.101,1.1,1.101h19.946c0.607,0,1.1,0.492,1.1,1.1C33.146,25.908,32.654,26.4,32.046,26.4z
	 M10.046,6.6l2.933,13.2h18.237l3.771-13.2H10.046z"/>
<path id="Shape-2" fill="#919191" d="M14.3,33c-1.822,0-3.3-1.478-3.3-3.3c0-1.823,1.478-3.3,3.3-3.3c1.823,0,3.3,1.477,3.3,3.3
	C17.6,31.522,16.123,33,14.3,33L14.3,33z M14.3,28.6c-0.607,0-1.1,0.492-1.1,1.101c0,0.607,0.492,1.1,1.1,1.1
	c0.608,0,1.1-0.492,1.1-1.1C15.4,29.092,14.908,28.6,14.3,28.6L14.3,28.6z"/>
<path id="Shape-3" fill="#919191" d="M29.847,33c-1.822,0-3.301-1.478-3.301-3.3c0-1.823,1.479-3.3,3.301-3.3s3.3,1.477,3.3,3.3
	C33.147,31.522,31.669,33,29.847,33L29.847,33z M29.847,28.6c-0.607,0-1.1,0.492-1.1,1.101c0,0.607,0.492,1.1,1.1,1.1
	s1.1-0.492,1.1-1.1C30.947,29.092,30.455,28.6,29.847,28.6L29.847,28.6z"/>
</svg>
